<svg width="18" height="20" viewBox="0 0 18 20" fill="none" xmlns="http://www.w3.org/2000/svg">
<path d="M4.14579 1.16667L5.33329 0L12.4791 7.14583C12.7986 7.46528 12.9583 7.86111 12.9583 8.33333C12.9583 8.80556 12.7986 9.20139 12.4791 9.52083L8.52079 13.4792C8.20135 13.7986 7.80552 13.9583 7.33329 13.9583C6.86107 13.9583 6.46524 13.7986 6.14579 13.4792L2.18746 9.52083C1.86801 9.20139 1.70829 8.80556 1.70829 8.33333C1.70829 7.86111 1.86801 7.46528 2.18746 7.14583L6.14579 3.16667L4.14579 1.16667ZM7.33329 4.35417L3.35413 8.33333H11.3125L7.33329 4.35417ZM14.8333 14.1667C14.375 14.1667 13.9826 14.0035 13.6562 13.6771C13.3298 13.3507 13.1666 12.9583 13.1666 12.5C13.1666 12.2083 13.2534 11.8958 13.427 11.5625C13.6007 11.2292 13.7916 10.9167 14 10.625C14.125 10.4583 14.2569 10.2847 14.3958 10.1042C14.5347 9.92361 14.6805 9.75 14.8333 9.58333C14.9861 9.75 15.1319 9.92361 15.2708 10.1042C15.4097 10.2847 15.5416 10.4583 15.6666 10.625C15.875 10.9167 16.0659 11.2292 16.2395 11.5625C16.4132 11.8958 16.5 12.2083 16.5 12.5C16.5 12.9583 16.3368 13.3507 16.0104 13.6771C15.684 14.0035 15.2916 14.1667 14.8333 14.1667ZM0.666626 20V16.6667H17.3333V20H0.666626Z" fill="#DDDDDD"/>
</svg>
